Secret Ops agent Marcus is sent to Detroit to take out an arms dealer and the head of the hedge fund that is financing him. His CIA backup has other plans and turns on him and it's a fight to survive in a hospital.

A diplomat's bodyguard and company are injured in a botched assassination attempt. They're all taken to the same hospital, where the bodyguard teams up with a nurse to protect the diplomat from a team of ruthless assassins. The nurse soon learns that there is more to this sticky situation than expected

Game of Death 2010 AAC 2CH DVDscr H264 - BSBT-RG

SPECS

General
Complete name : Game of Death plum1.m4v
Format : MPEG-4
Format profile : Base Media / Version 2
Codec ID : mp42
File size : 707 MiB
Duration : 1h 22mn
Overall bit rate : 1 200 Kbps
Encoded date : UTC 2010-12-12 03:26:39
Tagged date : UTC 2010-12-12 04:13:19
Writing application : HandBrake 0.9.4 2009112300

Video
ID : 1
Format : AVC
Format/Info : Advanced Video Codec
Format profile : High@L3.0
Format settings, CABAC : Yes
Format settings, ReFrames : 3 frames
Codec ID : avc1
Codec ID/Info : Advanced Video Coding
Duration : 1h 22mn
Bit rate mode : Variable
Bit rate : 1 036 Kbps
Width : 720 pixels
Height : 304 pixels
Display aspect ratio : 2.35:1
Frame rate mode : Variable
Frame rate : 24.984 fps
Original frame rate : 24.971 fps
Minimum frame rate : 12.498 fps
Maximum frame rate : 25.000 fps
Color space : YUV
Chroma subsampling : 4:2:0
Bit depth : 8 bits
Scan type : Progressive
Bits/(Pixel*Frame) : 0.189
Stream size : 611 MiB (86%)
Writing library : x264 core 79
Encoded date : UTC 2010-12-12 03:26:40
Tagged date : UTC 2010-12-12 04:13:19
Color primaries : BT.601-6 525, BT.1358 525, BT.1700 NTSC, SMPTE 170M
Transfer characteristics : BT.709-5, BT.1361
Matrix coefficients : BT.601-6 525, BT.1358 525, BT.1700 NTSC, SMPTE 170M

Audio
ID : 2
Format : AAC
Format/Info : Advanced Audio Codec
Format version : Version 4
Format profile : LC
Codec ID : 40
Duration : 1h 22mn
Bit rate mode : Variable
Bit rate : 160 Kbps
Maximum bit rate : 223 Kbps
Channel(s) : 2 channels
Channel positions : Front: L R
Sampling rate : 48.0 KHz
Compression mode : Lossy
Stream size : 94.3 MiB (13%)
Encoded date : UTC 2010-12-12 03:26:40
Tagged date : UTC 2010-12-12 04:13:19 


www.blackstarbt.net